<svg width="50" height="50" viewBox="0 0 50 50" fill="none" xmlns="http://www.w3.org/2000/svg">
<path d="M37.5 14.9167C37.375 14.8958 37.2292 14.8958 37.1042 14.9167C34.2292 14.8125 31.9375 12.4583 31.9375 9.54166C31.9375 6.56249 34.3333 4.16666 37.3125 4.16666C40.2917 4.16666 42.6875 6.58333 42.6875 9.54166C42.6667 12.4583 40.375 14.8125 37.5 14.9167Z" stroke="#70CF9F" stroke-width="4" stroke-linecap="round" stroke-linejoin="round"/>
<path d="M35.354 30.0834C38.2082 30.5625 41.354 30.0625 43.5623 28.5834C46.4998 26.625 46.4998 23.4167 43.5623 21.4584C41.3332 19.9792 38.1457 19.4792 35.2915 19.9792" stroke="#70CF9F" stroke-width="4" stroke-linecap="round" stroke-linejoin="round"/>
<path d="M12.4375 14.9167C12.5625 14.8958 12.7083 14.8958 12.8333 14.9167C15.7083 14.8125 18 12.4583 18 9.54166C18 6.56249 15.6042 4.16666 12.625 4.16666C9.64584 4.16666 7.25 6.58333 7.25 9.54166C7.27083 12.4583 9.5625 14.8125 12.4375 14.9167Z" stroke="#70CF9F" stroke-width="4" stroke-linecap="round" stroke-linejoin="round"/>
<path d="M14.5833 30.0834C11.7292 30.5625 8.58333 30.0625 6.375 28.5834C3.4375 26.625 3.4375 23.4167 6.375 21.4584C8.60417 19.9792 11.7917 19.4792 14.6458 19.9792" stroke="#70CF9F" stroke-width="4" stroke-linecap="round" stroke-linejoin="round"/>
<path d="M25 30.4792C24.875 30.4583 24.7292 30.4583 24.6042 30.4792C21.7292 30.375 19.4375 28.0208 19.4375 25.1042C19.4375 22.125 21.8333 19.7292 24.8125 19.7292C27.7917 19.7292 30.1875 22.1458 30.1875 25.1042C30.1667 28.0208 27.875 30.3958 25 30.4792Z" stroke="#70CF9F" stroke-width="4" stroke-linecap="round" stroke-linejoin="round"/>
<path d="M18.9375 37.0417C16 39 16 42.2083 18.9375 44.1667C22.2708 46.3958 27.7292 46.3958 31.0625 44.1667C34 42.2083 34 39 31.0625 37.0417C27.75 34.8333 22.2708 34.8333 18.9375 37.0417Z" stroke="#70CF9F" stroke-width="4" stroke-linecap="round" stroke-linejoin="round"/>
</svg>
